<svg width="32" height="32" xmlns="http://www.w3.org/2000/svg">

 <title/>
 <g>
  <title>background</title>
  <rect fill="none" id="canvas_background" height="402" width="582" y="-1" x="-1"/>
 </g>
 <g>
  <title>Layer 1</title>
  <path fill="#ffffff" id="svg_1" d="m6,21.055172l0,-1l-2,0l0,1a7,7 0 0 0 7,7l3,0l0,-2l-3,0a5,5 0 0 1 -5,-5z"/>
  <path fill="#ffffff" id="svg_2" d="m24,11l0,1l2,0l0,-1a7,7 0 0 0 -7,-7l-3,0l0,2l3,0a5,5 0 0 1 5,5z"/>
  <path fill="#ffffff" id="svg_3" d="m11,11l-6,0a3,3 0 0 0 -3,3l0,2l2,0l0,-2a1,1 0 0 1 1,-1l6,0a1,1 0 0 1 1,1l0,2l2,0l0,-2a3,3 0 0 0 -3,-3z"/>
  <path fill="#ffffff" id="svg_4" d="m8,10a4,4 0 1 0 -4,-4a4,4 0 0 0 4,4zm0,-6a2,2 0 1 1 -2,2a2,2 0 0 1 2,-2z"/>
  <path fill="#ffffff" id="svg_5" d="m27,24.944828l-6,0a3,3 0 0 0 -3,3l0,2l2,0l0,-2a1,1 0 0 1 1,-1l6,0a1,1 0 0 1 1,1l0,2l2,0l0,-2a3,3 0 0 0 -3,-3z"/>
  <path fill="#ffffff" id="svg_6" d="m20,20a4,4 0 1 0 4,-4a4,4 0 0 0 -4,4zm6,0a2,2 0 1 1 -2,-2a2,2 0 0 1 2,2z"/>
  <rect x="0" y="32" fill="none" width="32" id="_Transparent_Rectangle_" height="0.275777" class="cls-1"/>
 </g>
</svg>