<?xml version="1.0" encoding="UTF-8" standalone="no"?>
<svg
   viewBox="0 0 128 128"
   version="1.1"
   id="svg34"
   sodipodi:docname="mongodb.svg"
   inkscape:version="1.1.2 (0a00cf5339, 2022-02-04)"
   xmlns:inkscape="http://www.inkscape.org/namespaces/inkscape"
   xmlns:sodipodi="http://sodipodi.sourceforge.net/DTD/sodipodi-0.dtd"
   xmlns="http://www.w3.org/2000/svg"
   xmlns:svg="http://www.w3.org/2000/svg">
  <rect
     style="fill:#001e2b;fill-opacity:1;stroke-width:1.0859"
     id="rect13257"
     width="124.21343"
     height="127.4332"
     x="3.5244303"
     y="0.48333248"
     ry="63.716602" />
  <defs
     id="defs38" />
  <sodipodi:namedview
     id="namedview36"
     pagecolor="#ffffff"
     bordercolor="#000000"
     borderopacity="0.25"
     inkscape:pageshadow="2"
     inkscape:pageopacity="0.0"
     inkscape:pagecheckerboard="0"
     showgrid="false"
     inkscape:zoom="3.296875"
     inkscape:cx="64"
     inkscape:cy="63.848341"
     inkscape:window-width="1920"
     inkscape:window-height="1016"
     inkscape:window-x="1920"
     inkscape:window-y="27"
     inkscape:window-maximized="1"
     inkscape:current-layer="svg34" />
  <path
     fill-rule="evenodd"
     clip-rule="evenodd"
     fill="#439934"
     d="m 89.926349,42.855709 c 1.605,4.643 2.761,9.383 3.141,14.296 0.472,6.095 0.256,12.147 -1.029,18.142 -0.035,0.165 -0.109,0.32 -0.164,0.48 -0.403,0.001 -0.814,-0.049 -1.208,0.012 -3.329,0.523 -6.655,1.065 -9.981,1.604 -3.438,0.557 -6.881,1.092 -10.313,1.687 -1.216,0.21 -2.721,-0.041 -3.212,1.641 -0.014,0.046 -0.154,0.054 -0.235,0.08 l 0.166,-10.051 -0.169,-24.252 1.602,-0.275 c 2.62,-0.429 5.24,-0.864 7.862,-1.281 3.129,-0.497 6.261,-0.98 9.392,-1.465 1.381,-0.215 2.764,-0.412 4.148,-0.618 z"
     id="path2" />
  <path
     fill-rule="evenodd"
     clip-rule="evenodd"
     fill="#45a538"
     d="m 63.617349,110.0977 c -1.69,-1.453 -3.439,-2.842 -5.059,-4.37 -8.717,-8.221991 -15.093,-17.898991 -18.233,-29.565991 -0.865,-3.211 -1.442,-6.474 -1.627,-9.792 -0.13,-2.322 -0.318,-4.665 -0.154,-6.975 0.437,-6.144 1.325,-12.229 3.127,-18.147 l 0.099,-0.138 c 0.175,0.233 0.427,0.439 0.516,0.702 1.759,5.18 3.505,10.364 5.242,15.551 5.458,16.3 10.909,32.604 16.376,48.899991 0.107,0.318 0.384,0.579 0.583,0.866 z"
     id="path4" />
  <path
     fill-rule="evenodd"
     clip-rule="evenodd"
     fill="#46a037"
     d="m 89.926349,42.855709 c -1.384,0.206 -2.768,0.403 -4.149,0.616 -3.131,0.485 -6.263,0.968 -9.392,1.465 -2.622,0.417 -5.242,0.852 -7.862,1.281 l -1.602,0.275 -0.012,-1.045 c -0.053,-0.859 -0.144,-1.717 -0.154,-2.576 -0.069,-5.478 -0.112,-10.956 -0.18,-16.434 -0.042,-3.429 -0.105,-6.857 -0.175,-10.285 -0.043,-2.13 -0.089,-4.261 -0.185,-6.3879995 -0.052,-1.1430002 -0.236,-2.2800002 -0.311,-3.4230002 -0.042,-0.657 0.016,-1.319 0.029,-1.979 0.817,1.583 1.616,3.178 2.456,4.749 1.327,2.4839997 3.441,4.3139997 5.344,6.3109997 7.523,7.892 12.864,17.068 16.193,27.433 z"
     id="path6" />
  <path
     fill-rule="evenodd"
     clip-rule="evenodd"
     fill="#409433"
     d="m 66.924349,80.796709 c 0.081,-0.026 0.222,-0.034 0.235,-0.08 0.491,-1.682 1.996,-1.431 3.212,-1.641 3.432,-0.594 6.875,-1.13 10.313,-1.687 3.326,-0.539 6.652,-1.081 9.981,-1.604 0.394,-0.062 0.805,-0.011 1.208,-0.012 -0.622,2.22 -1.112,4.488 -1.901,6.647 -0.896,2.449 -1.98,4.839 -3.131,7.182 a 49.142,49.142 0 0 1 -6.353,9.763 c -1.919,2.307991 -4.058,4.440991 -6.202,6.547991 -1.185,1.165 -2.582,2.114 -3.882,3.161 l -0.337,-0.23 -1.214,-1.038 -1.256,-2.753 a 41.402,41.402 0 0 1 -1.394,-9.837991 l 0.023,-0.561 0.171,-2.426 c 0.057,-0.828 0.133,-1.655 0.168,-2.485 0.129,-2.982 0.241,-5.964 0.359,-8.946 z"
     id="path8" />
  <path
     fill-rule="evenodd"
     clip-rule="evenodd"
     fill="#4faa41"
     d="m 66.924349,80.796709 c -0.118,2.982 -0.23,5.964 -0.357,8.947 -0.035,0.83 -0.111,1.657 -0.168,2.485 l -0.765,0.289 c -1.699,-5.002 -3.399,-9.951 -5.062,-14.913 -2.75,-8.209 -5.467,-16.431 -8.213,-24.642 a 4498.887,4498.887 0 0 0 -6.7,-19.867 c -0.105,-0.31 -0.407,-0.552 -0.617,-0.826 l 4.896,-9.002 c 0.168,0.292 0.39,0.565 0.496,0.879 a 6167.476,6167.476 0 0 1 6.768,20.118 c 2.916,8.73 5.814,17.467 8.728,26.198 0.116,0.349 0.308,0.671 0.491,1.062 l 0.67,-0.78 z"
     id="path10" />
  <path
     fill-rule="evenodd"
     clip-rule="evenodd"
     fill="#4aa73c"
     d="m 45.043349,32.270709 c 0.21,0.274 0.511,0.516 0.617,0.826 a 4498.887,4498.887 0 0 1 6.7,19.867 c 2.746,8.211 5.463,16.433 8.213,24.642 1.662,4.961 3.362,9.911 5.062,14.913 l 0.765,-0.289 -0.171,2.426 -0.155,0.559 c -0.266,2.656 -0.49,5.317991 -0.814,7.967991 -0.163,1.328 -0.509,2.632 -0.772,3.947 -0.198,-0.287 -0.476,-0.548 -0.583,-0.866 -5.467,-16.296991 -10.918,-32.599991 -16.376,-48.899991 a 3888.972,3888.972 0 0 0 -5.242,-15.551 c -0.089,-0.263 -0.34,-0.469 -0.516,-0.702 z"
     id="path12" />
  <path
     fill-rule="evenodd"
     clip-rule="evenodd"
     fill="#57ae47"
     d="m 67.090349,70.745709 -0.67,0.78 c -0.183,-0.391 -0.375,-0.714 -0.491,-1.062 -2.913,-8.731 -5.812,-17.468 -8.728,-26.198 a 6167.476,6167.476 0 0 0 -6.768,-20.118 c -0.105,-0.314 -0.327,-0.588 -0.496,-0.879 l 6.055,-7.965 c 0.191,0.255 0.463,0.482 0.562,0.769 1.681,4.921 3.347,9.848 5.003,14.778 1.547,4.604 3.071,9.215 4.636,13.813 0.105,0.308 0.47,0.526 0.714,0.786 l 0.012,1.045 c 0.058,8.082 0.115,16.167 0.171,24.251 z"
     id="path14" />
  <path
     fill-rule="evenodd"
     clip-rule="evenodd"
     fill="#60b24f"
     d="m 66.909349,45.447709 c -0.244,-0.26 -0.609,-0.478 -0.714,-0.786 -1.565,-4.598 -3.089,-9.209 -4.636,-13.813 -1.656,-4.93 -3.322,-9.856 -5.003,-14.778 -0.099,-0.287 -0.371,-0.514 -0.562,-0.769 1.969,-1.928 3.877,-3.925 5.925,-5.7639995 1.821,-1.6340002 3.285,-3.3860002 3.352,-5.9680002 0.003,-0.107 0.059,-0.214 0.145,-0.514 l 0.519,1.306 c -0.013,0.661 -0.072,1.322 -0.029,1.979 0.075,1.143 0.259,2.28 0.311,3.4230002 0.096,2.1269995 0.142,4.2579995 0.185,6.3879995 0.069,3.428 0.132,6.856 0.175,10.285 0.067,5.478 0.111,10.956 0.18,16.434 0.008,0.861 0.098,1.718 0.152,2.577 z"
     id="path16" />
  <path
     fill-rule="evenodd"
     clip-rule="evenodd"
     fill="#a9aa88"
     d="m 64.486349,107.1287 c 0.263,-1.315 0.609,-2.62 0.772,-3.947 0.325,-2.649 0.548,-5.311991 0.814,-7.967991 l 0.066,-0.01 0.066,0.011 a 41.402,41.402 0 0 0 1.394,9.837991 c -0.176,0.232 -0.425,0.439 -0.518,0.701 -0.727,2.05 -1.412,4.116 -2.143,6.166 -0.1,0.28 -0.378,0.498 -0.574,0.744 l -0.747,-2.566 z"
     id="path18" />
  <path
     fill-rule="evenodd"
     clip-rule="evenodd"
     fill="#b6b598"
     d="m 64.364349,112.6647 c 0.196,-0.246 0.475,-0.464 0.574,-0.744 0.731,-2.05 1.417,-4.115 2.143,-6.166 0.093,-0.262 0.341,-0.469 0.518,-0.701 l 1.255,2.754 c -0.248,0.352 -0.59,0.669 -0.728,1.061 l -2.404,7.059 c -0.099,0.283 -0.437,0.483 -0.663,0.722 z"
     id="path20" />
  <path
     fill-rule="evenodd"
     clip-rule="evenodd"
     fill="#c2c1a7"
     d="m 65.059349,116.6487 c 0.227,-0.238 0.564,-0.439 0.663,-0.722 l 2.404,-7.059 c 0.137,-0.391 0.48,-0.709 0.728,-1.061 l 1.215,1.037 c -0.587,0.58 -0.913,1.25 -0.717,2.097 l -0.369,1.208 c -0.168,0.207 -0.411,0.387 -0.494,0.624 -0.839,2.403 -1.64,4.819 -2.485,7.222 -0.107,0.305 -0.404,0.544 -0.614,0.812 -0.109,-1.387 -0.22,-2.771 -0.331,-4.158 z"
     id="path22" />
  <path
     fill-rule="evenodd"
     clip-rule="evenodd"
     fill="#cecdb7"
     d="m 65.391349,120.8067 c 0.209,-0.269 0.506,-0.508 0.614,-0.812 0.845,-2.402 1.646,-4.818 2.485,-7.222 0.083,-0.236 0.325,-0.417 0.494,-0.624 l -0.509,5.545 c -0.136,0.157 -0.333,0.294 -0.398,0.477 -0.575,1.614 -1.117,3.24 -1.694,4.854 -0.119,0.333 -0.347,0.627 -0.525,0.938 -0.158,-0.207 -0.441,-0.407 -0.454,-0.623 -0.051,-0.841 -0.016,-1.688 -0.013,-2.533 z"
     id="path24" />
  <path
     fill-rule="evenodd"
     clip-rule="evenodd"
     fill="#dbdac7"
     d="m 65.857349,123.9627 c 0.178,-0.312 0.406,-0.606 0.525,-0.938 0.578,-1.613 1.119,-3.239 1.694,-4.854 0.065,-0.183 0.263,-0.319 0.398,-0.477 l 0.012,3.64 -1.218,3.124 z"
     id="path26" />
  <path
     fill-rule="evenodd"
     clip-rule="evenodd"
     fill="#ebe9dc"
     d="m 67.268349,124.4587 1.218,-3.124 0.251,3.696 z"
     id="path28" />
  <path
     fill-rule="evenodd"
     clip-rule="evenodd"
     fill="#cecdb7"
     d="m 69.352349,110.9417 c -0.196,-0.847 0.129,-1.518 0.717,-2.097 l 0.337,0.23 z"
     id="path30" />
  <path
     fill-rule="evenodd"
     clip-rule="evenodd"
     fill="#4faa41"
     d="m 66.204349,95.215709 -0.066,-0.011 -0.066,0.01 0.155,-0.559 z"
     id="path32" />
</svg>
