<svg width="32" height="32" xmlns="http://www.w3.org/2000/svg">

 <title/>
 <g>
  <title>background</title>
  <rect fill="none" id="canvas_background" height="402" width="582" y="-1" x="-1"/>
 </g>
 <g>
  <title>Layer 1</title>
  <path fill="#ffffff" id="svg_1" d="m18,30l-14,0a2,2 0 0 1 -2,-2l0,-14a2,2 0 0 1 2,-2l14,0a2,2 0 0 1 2,2l0,14a2,2 0 0 1 -2,2zm-14,-16l0,14l14,0l0,-14l-14,0z"/>
  <path fill="#ffffff" id="svg_2" d="m25,23l-2,0l0,-14l-14,0l0,-2l14,0a2,2 0 0 1 2,2l0,14z"/>
  <path fill="#ffffff" id="svg_3" d="m30,16l-2,0l0,-12l-12,0l0,-2l12,0a2,2 0 0 1 2,2l0,12z"/>
  <path d="m15.999938,3.555221c0,0 0.055171,0 0.220689,0c0.27586,0 0.551722,0 0.772411,0c0.27586,0 0.606894,0.055172 0.882755,0.165516c0.27586,0.110344 0.486145,0.172945 0.606894,0.331033c0.105902,0.138652 0.153921,0.280189 0.220688,0.441378c0.047211,0.113978 0.055172,0.275861 0.055172,0.386205c0,0.110344 0.00367,0.276811 -0.055172,0.49655c-0.103895,0.38799 -0.322695,0.99567 -0.49655,1.544821c-0.157976,0.499 -0.319664,0.942751 -0.441378,1.213789c-0.050539,0.112542 -0.110344,0.165517 -0.165516,0.220689c0,0 0,0 -0.055172,0l0,-0.055172l0,-0.110345" id="svg_4" stroke-width="null" fill="none"/>
  <polyline stroke-linecap="round" id="svg_5" points="13.793049743353428,4.7138366265705836 13.793049743353428,4.7138366265705836 " stroke-width="null" fill="none"/>
 </g>
</svg>