<?xml version="1.0" encoding="utf-8"?>
<svg id="master-artboard" xmlns="http://www.w3.org/2000/svg" viewBox="0 0 783 359" width="783px" height="359px"><defs><style id="ee-google-fonts">@import url(https://fonts.googleapis.com/css?family=Doppio+One:400);</style></defs><rect id="ee-background" x="0" y="0" width="783" height="359" style="fill: white; fill-opacity: 0; pointer-events: none;"/><path d="M 124.88644409179688 164.88999938964844 C 125.48644256591797 164.9166717529297 126.10977172851562 164.94332885742188 126.75643920898438 164.97000122070312 C 127.30310821533203 164.99667358398438 127.8897705078125 165.01666259765625 128.5164337158203 165.02999877929688 C 129.1431121826172 165.0433349609375 129.74310302734375 165.0500030517578 130.31643676757812 165.0500030517578 C 131.19644165039062 165.0500030517578 131.95643615722656 165.00999450683594 132.596435546875 164.92999267578125 C 133.23643493652344 164.85000610351562 133.7631072998047 164.63999938964844 134.1764373779297 164.3000030517578 C 134.596435546875 163.96665954589844 134.90977478027344 163.45333862304688 135.11643981933594 162.75999450683594 C 135.32310485839844 162.07333374023438 135.4264373779297 161.10333251953125 135.4264373779297 159.85000610351562 L 135.4264373779297 116.25999450683594 L 144.846435546875 116.25999450683594 L 144.88644409179688 162.6999969482422 C 144.88644409179688 164.67999267578125 144.65643310546875 166.32666015625 144.19644165039062 167.63999938964844 C 143.74310302734375 168.9600067138672 143.06643676757812 170.01666259765625 142.16644287109375 170.80999755859375 C 141.26644897460938 171.60333251953125 140.15310668945312 172.163330078125 138.82644653320312 172.49000549316406 C 137.49977111816406 172.81666564941406 135.96310424804688 172.97999572753906 134.21644592285156 172.97999572753906 C 132.9697723388672 172.97999572753906 131.78643798828125 172.913330078125 130.66644287109375 172.77999877929688 C 129.54644775390625 172.65333557128906 128.5564422607422 172.49667358398438 127.69644165039062 172.30999755859375 C 126.68310546875 172.10333251953125 125.74644470214844 171.8699951171875 124.88644409179688 171.61000061035156 L 124.88644409179688 164.88999938964844 ZM 170.53953552246094 116.25999450683594 L 182.95953369140625 116.25999450683594 L 201.20953369140625 172 L 190.85952758789062 172 L 186.16952514648438 156.8800048828125 L 167.17953491210938 156.8800048828125 L 162.6895294189453 172 L 152.45953369140625 172 L 170.53953552246094 116.25999450683594 M 183.58953857421875 148.47999572753906 L 176.70953369140625 124.88999938964844 L 176.5595245361328 124.88999938964844 L 169.67953491210938 148.47999572753906 L 183.58953857421875 148.47999572753906 ZM 227.9917449951172 172.97999572753906 C 226.19174194335938 172.97999572753906 224.40174865722656 172.80999755859375 222.6217498779297 172.47000122070312 C 220.8350830078125 172.1300048828125 219.14173889160156 171.5433349609375 217.541748046875 170.7100067138672 C 215.94174194335938 169.8766632080078 214.45175170898438 168.75 213.07174682617188 167.3300018310547 C 211.69174194335938 165.91000366210938 210.4917449951172 164.1133270263672 209.47174072265625 161.94000244140625 C 208.45840454101562 159.76666259765625 207.6650848388672 157.18333435058594 207.0917510986328 154.19000244140625 C 206.51841735839844 151.19667053222656 206.23175048828125 147.69332885742188 206.23175048828125 143.67999267578125 C 206.23175048828125 139.82666015625 206.55841064453125 136.44667053222656 207.2117462158203 133.54000854492188 C 207.86508178710938 130.63999938964844 208.73841857910156 128.13333129882812 209.8317413330078 126.02000427246094 C 210.92507934570312 123.913330078125 212.1984100341797 122.17666625976562 213.65174865722656 120.80999755859375 C 215.1117401123047 119.44332885742188 216.64840698242188 118.3566665649414 218.26174926757812 117.55000305175781 C 219.88174438476562 116.74333190917969 221.52508544921875 116.17666625976562 223.19174194335938 115.8499984741211 C 224.85841369628906 115.52333068847656 226.45840454101562 115.36000061035156 227.9917449951172 115.36000061035156 C 230.59841918945312 115.36000061035156 232.86508178710938 115.49000549316406 234.791748046875 115.75 C 236.71841430664062 116.00999450683594 238.3317413330078 116.29666137695312 239.63174438476562 116.61000061035156 C 241.14508056640625 116.97666931152344 242.43507385253906 117.3933334350586 243.50173950195312 117.86000061035156 L 243.50173950195312 124.58000183105469 C 242.43507385253906 124.5 241.2884063720703 124.41999816894531 240.06173706054688 124.33999633789062 C 239.02174377441406 124.2933349609375 237.8317413330078 124.23666381835938 236.4917449951172 124.16999816894531 C 235.14508056640625 124.10333251953125 233.74508666992188 124.06999969482422 232.291748046875 124.06999969482422 C 230.95840454101562 124.06999969482422 229.63507080078125 124.12333679199219 228.32174682617188 124.22999572753906 C 227.00840759277344 124.33000183105469 225.74508666992188 124.59666442871094 224.53173828125 125.02999877929688 C 223.3250732421875 125.4566650390625 222.1984100341797 126.086669921875 221.15174865722656 126.91999816894531 C 220.1117401123047 127.75333404541016 219.20840454101562 128.89334106445312 218.44174194335938 130.33999633789062 C 217.67507934570312 131.7866668701172 217.0750732421875 133.58999633789062 216.64173889160156 135.75 C 216.21507263183594 137.91000366210938 216.00173950195312 140.52667236328125 216.00173950195312 143.60000610351562 C 216.00173950195312 146.8333282470703 216.22174072265625 149.5933380126953 216.6617431640625 151.8800048828125 C 217.10841369628906 154.17333984375 217.72174072265625 156.086669921875 218.50173950195312 157.6199951171875 C 219.28173828125 159.16000366210938 220.19174194335938 160.3733367919922 221.23175048828125 161.25999450683594 C 222.27174377441406 162.14666748046875 223.4050750732422 162.81666564941406 224.63174438476562 163.27000427246094 C 225.85841369628906 163.72332763671875 227.13507080078125 164.00999450683594 228.4617462158203 164.1300048828125 C 229.7884063720703 164.2433319091797 231.11508178710938 164.3000030517578 232.44174194335938 164.3000030517578 C 234.1617431640625 164.3000030517578 235.72508239746094 164.27667236328125 237.13174438476562 164.22999572753906 C 238.5384063720703 164.17666625976562 239.73507690429688 164.1233367919922 240.72174072265625 164.07000732421875 C 241.89508056640625 163.99000549316406 242.95175170898438 163.913330078125 243.89175415039062 163.83999633789062 L 243.89175415039062 170.5500030517578 C 242.74508666992188 171.02333068847656 241.39175415039062 171.42999267578125 239.8317413330078 171.77000427246094 C 238.47174072265625 172.07666015625 236.81173706054688 172.35667419433594 234.85174560546875 172.61000061035156 C 232.88507080078125 172.85667419433594 230.59841918945312 172.97999572753906 227.9917449951172 172.97999572753906 ZM 275.2161865234375 173.2100067138672 C 272.8228454589844 173.2100067138672 270.5961608886719 173.0399932861328 268.5361633300781 172.6999969482422 C 266.48284912109375 172.36666870117188 264.6094970703125 171.77667236328125 262.9161682128906 170.92999267578125 C 261.22283935546875 170.0833282470703 259.7195129394531 168.9566650390625 258.4061584472656 167.5500030517578 C 257.086181640625 166.14334106445312 255.97283935546875 164.3633270263672 255.06617736816406 162.2100067138672 C 254.15283203125 160.06333923339844 253.4628448486328 157.52000427246094 252.9961700439453 154.5800018310547 C 252.52284240722656 151.63333129882812 252.2861785888672 148.2066650390625 252.2861785888672 144.3000030517578 C 252.2861785888672 138.44667053222656 252.80616760253906 133.6300048828125 253.84617614746094 129.85000610351562 C 254.89283752441406 126.07666778564453 256.4061584472656 123.10333251953125 258.38616943359375 120.93000030517578 C 260.3594970703125 118.75 262.76617431640625 117.23666381835938 265.6061706542969 116.38999938964844 C 268.4461669921875 115.5433349609375 271.6495056152344 115.1199951171875 275.2161865234375 115.1199951171875 C 277.5895080566406 115.1199951171875 279.8028564453125 115.30332946777344 281.8561706542969 115.66999816894531 C 283.9161682128906 116.03666687011719 285.7928466796875 116.6500015258789 287.4861755371094 117.50999450683594 C 289.17950439453125 118.3699951171875 290.6761779785156 119.52000427246094 291.9761657714844 120.95999908447266 C 293.27618408203125 122.40666198730469 294.37615966796875 124.20999908447266 295.27618408203125 126.3699951171875 C 296.1761779785156 128.5366668701172 296.8594970703125 131.09666442871094 297.326171875 134.0500030517578 C 297.7928466796875 137.00332641601562 298.02618408203125 140.4199981689453 298.02618408203125 144.3000030517578 C 298.02618408203125 148.17999267578125 297.7928466796875 151.5933380126953 297.326171875 154.54000854492188 C 296.8594970703125 157.47999572753906 296.1761779785156 160.02667236328125 295.27618408203125 162.17999267578125 C 294.37615966796875 164.32666015625 293.27618408203125 166.11000061035156 291.9761657714844 167.52999877929688 C 290.6761779785156 168.9499969482422 289.17950439453125 170.07666015625 287.4861755371094 170.91000366210938 C 285.7928466796875 171.7433319091797 283.9161682128906 172.3333282470703 281.8561706542969 172.67999267578125 C 279.8028564453125 173.03334045410156 277.5895080566406 173.2100067138672 275.2161865234375 173.2100067138672 M 275.2161865234375 164.5800018310547 C 277.7695007324219 164.5800018310547 279.88616943359375 164.27999877929688 281.566162109375 163.67999267578125 C 283.2461853027344 163.0800018310547 284.5794982910156 162.02000427246094 285.566162109375 160.5 C 286.55950927734375 158.97332763671875 287.25616455078125 156.90333557128906 287.65618896484375 154.29000854492188 C 288.0628356933594 151.6699981689453 288.26617431640625 148.33999633789062 288.26617431640625 144.3000030517578 C 288.26617431640625 140.24000549316406 288.0628356933594 136.89666748046875 287.65618896484375 134.27000427246094 C 287.25616455078125 131.63665771484375 286.55950927734375 129.54666137695312 285.566162109375 128 C 284.5794982910156 126.44667053222656 283.2461853027344 125.36333465576172 281.566162109375 124.75 C 279.88616943359375 124.1433334350586 277.7695007324219 123.83999633789062 275.2161865234375 123.83999633789062 C 272.662841796875 123.83999633789062 270.5395202636719 124.1433334350586 268.8461608886719 124.75 C 267.1595153808594 125.36333465576172 265.81951904296875 126.44667053222656 264.826171875 128 C 263.8395080566406 129.54666137695312 263.1428527832031 131.63665771484375 262.7361755371094 134.27000427246094 C 262.336181640625 136.89666748046875 262.13616943359375 140.24000549316406 262.13616943359375 144.3000030517578 C 262.13616943359375 148.33999633789062 262.336181640625 151.6699981689453 262.7361755371094 154.29000854492188 C 263.1428527832031 156.90333557128906 263.8395080566406 158.97332763671875 264.826171875 160.5 C 265.81951904296875 162.02000427246094 267.1595153808594 163.0800018310547 268.8461608886719 163.67999267578125 C 270.5395202636719 164.27999877929688 272.662841796875 164.5800018310547 275.2161865234375 164.5800018310547 ZM 309.6291198730469 116.25999450683594 L 331.4691467285156 116.25999450683594 C 334.20245361328125 116.25999450683594 336.532470703125 116.56666564941406 338.4591369628906 117.18000030517578 C 340.38580322265625 117.78666687011719 341.9657897949219 118.72332763671875 343.1991271972656 119.99000549316406 C 344.43914794921875 121.25 345.3457946777344 122.836669921875 345.91912841796875 124.75 C 346.4924621582031 126.663330078125 346.7791442871094 128.92333984375 346.7791442871094 131.52999877929688 C 346.7791442871094 133.7433319091797 346.54913330078125 135.54000854492188 346.0891418457031 136.9199981689453 C 345.63580322265625 138.3000030517578 345.0724792480469 139.39334106445312 344.3991394042969 140.1999969482422 C 343.7191467285156 141.0066680908203 342.96246337890625 141.586669921875 342.129150390625 141.94000244140625 C 341.2958068847656 142.2933349609375 340.51580810546875 142.54666137695312 339.78912353515625 142.6999969482422 L 339.78912353515625 142.77999877929688 C 340.25579833984375 142.8333282470703 340.8157958984375 142.94332885742188 341.4691467285156 143.11000061035156 C 342.1158142089844 143.2833251953125 342.79248046875 143.5433349609375 343.4991455078125 143.88999938964844 C 344.1991271972656 144.2433319091797 344.8891296386719 144.7133331298828 345.5691223144531 145.3000030517578 C 346.2424621582031 145.8866729736328 346.85247802734375 146.6366729736328 347.3991394042969 147.5500030517578 C 347.94580078125 148.4566650390625 348.3891296386719 149.55667114257812 348.7291259765625 150.85000610351562 C 349.0691223144531 152.1366729736328 349.2391357421875 153.63999938964844 349.2391357421875 155.36000061035156 C 349.2391357421875 158.8000030517578 348.8991394042969 161.60000610351562 348.2191467285156 163.75999450683594 C 347.5458068847656 165.9199981689453 346.52581787109375 167.6133270263672 345.15911865234375 168.83999633789062 C 343.79248046875 170.05999755859375 342.05914306640625 170.89332580566406 339.9591369628906 171.33999633789062 C 337.8658142089844 171.77999877929688 335.4124755859375 172 332.59912109375 172 L 309.6291198730469 172 L 309.6291198730469 116.25999450683594 M 329.629150390625 139.77000427246094 C 331.0357971191406 139.77000427246094 332.23248291015625 139.67999267578125 333.2191467285156 139.5 C 334.21246337890625 139.32000732421875 335.02581787109375 138.9499969482422 335.65911865234375 138.38999938964844 C 336.29913330078125 137.8300018310547 336.762451171875 137.04000854492188 337.04913330078125 136.02000427246094 C 337.3358154296875 135.0066680908203 337.4791259765625 133.6666717529297 337.4791259765625 132 C 337.4791259765625 130.6199951171875 337.30914306640625 129.4666748046875 336.9691467285156 128.54000854492188 C 336.63580322265625 127.6199951171875 336.1424560546875 126.88666534423828 335.4891357421875 126.33999633789062 C 334.8358154296875 125.7933349609375 334.0357971191406 125.4000015258789 333.0891418457031 125.16000366210938 C 332.13580322265625 124.92666625976562 331.05914306640625 124.80999755859375 329.859130859375 124.80999755859375 L 318.9991455078125 124.80999755859375 L 318.9991455078125 139.77000427246094 L 329.629150390625 139.77000427246094 M 331.4691467285156 163.4499969482422 C 332.6624755859375 163.4499969482422 333.7491455078125 163.35000610351562 334.7291259765625 163.14999389648438 C 335.70245361328125 162.9566650390625 336.5357971191406 162.57333374023438 337.2291259765625 162 C 337.9158020019531 161.42666625976562 338.4491271972656 160.6266632080078 338.8291320800781 159.60000610351562 C 339.2091369628906 158.56666564941406 339.3991394042969 157.2066650390625 339.3991394042969 155.52000427246094 C 339.3991394042969 153.82666015625 339.2358093261719 152.4633331298828 338.90911865234375 151.42999267578125 C 338.58245849609375 150.40333557128906 338.0724792480469 149.61666870117188 337.379150390625 149.07000732421875 C 336.6924743652344 148.52333068847656 335.8224792480469 148.1666717529297 334.7691345214844 148 C 333.7091369628906 147.82666015625 332.45245361328125 147.74000549316406 330.9991455078125 147.74000549316406 L 318.9991455078125 147.74000549316406 L 318.9991455078125 163.4499969482422 L 331.4691467285156 163.4499969482422 ZM 380.8582763671875 116.25999450683594 L 400.8582763671875 116.25999450683594 C 402.9183044433594 116.25999450683594 404.8916320800781 116.40333557128906 406.7782897949219 116.69000244140625 C 408.6649475097656 116.97666931152344 410.4149475097656 117.48333740234375 412.0282897949219 118.20999908447266 C 413.6416320800781 118.9366683959961 415.1149597167969 119.95333862304688 416.44830322265625 121.25999450683594 C 417.77496337890625 122.55999755859375 418.90496826171875 124.22666931152344 419.8382873535156 126.25999450683594 C 420.7782897949219 128.2866668701172 421.5016174316406 130.73333740234375 422.00830078125 133.60000610351562 C 422.51495361328125 136.4666748046875 422.7682800292969 139.82666015625 422.7682800292969 143.67999267578125 C 422.7682800292969 147.6666717529297 422.53497314453125 151.1366729736328 422.06829833984375 154.08999633789062 C 421.60162353515625 157.0433349609375 420.9249572753906 159.57000732421875 420.0382995605469 161.6699981689453 C 419.151611328125 163.76333618164062 418.0716247558594 165.47999572753906 416.79827880859375 166.82000732421875 C 415.5182800292969 168.1666717529297 414.06494140625 169.22332763671875 412.43829345703125 169.99000549316406 C 410.8116149902344 170.7566680908203 409.0282897949219 171.28334045410156 407.0882873535156 171.57000732421875 C 405.1482849121094 171.85667419433594 403.0716247558594 172 400.8582763671875 172 L 380.8582763671875 172 L 380.8582763671875 116.25999450683594 M 398.31829833984375 163.2899932861328 C 399.64495849609375 163.2899932861328 400.9349670410156 163.2566680908203 402.18829345703125 163.19000244140625 C 403.4349670410156 163.1233367919922 404.5982971191406 162.89666748046875 405.67828369140625 162.50999450683594 C 406.75830078125 162.11666870117188 407.748291015625 161.52333068847656 408.6482849121094 160.72999572753906 C 409.54827880859375 159.93666076660156 410.31829833984375 158.80999755859375 410.9582824707031 157.35000610351562 C 411.59161376953125 155.88999938964844 412.0849609375 154.04666137695312 412.43829345703125 151.82000732421875 C 412.7916259765625 149.5933380126953 412.9682922363281 146.85333251953125 412.9682922363281 143.60000610351562 C 412.9682922363281 140.5800018310547 412.79827880859375 138.02333068847656 412.4582824707031 135.92999267578125 C 412.1182861328125 133.8300018310547 411.6383056640625 132.08999633789062 411.0182800292969 130.70999145507812 C 410.3916320800781 129.3300018310547 409.6416320800781 128.2566680908203 408.7682800292969 127.49000549316406 C 407.89495849609375 126.72332763671875 406.91162109375 126.1500015258789 405.81829833984375 125.77000427246094 C 404.7249450683594 125.38999938964844 403.54827880859375 125.163330078125 402.2882995605469 125.08999633789062 C 401.0216369628906 125.00999450683594 399.69830322265625 124.97000122070312 398.31829833984375 124.97000122070312 L 390.2283020019531 124.97000122070312 L 390.2283020019531 163.2899932861328 L 398.31829833984375 163.2899932861328 ZM 434.3742370605469 116.25999450683594 L 443.7442626953125 116.25999450683594 L 443.7442626953125 172 L 434.3742370605469 172 L 434.3742370605469 116.25999450683594 ZM 457.96575927734375 116.25999450683594 L 479.8057861328125 116.25999450683594 C 482.5390930175781 116.25999450683594 484.8691101074219 116.56666564941406 486.7957763671875 117.18000030517578 C 488.7224426269531 117.78666687011719 490.30242919921875 118.72332763671875 491.5357666015625 119.99000549316406 C 492.7757568359375 121.25 493.68243408203125 122.836669921875 494.2557678222656 124.75 C 494.8291015625 126.663330078125 495.11578369140625 128.92333984375 495.11578369140625 131.52999877929688 C 495.11578369140625 133.7433319091797 494.8857727050781 135.54000854492188 494.42578125 136.9199981689453 C 493.9724426269531 138.3000030517578 493.40911865234375 139.39334106445312 492.73577880859375 140.1999969482422 C 492.0557861328125 141.0066680908203 491.2991027832031 141.586669921875 490.46575927734375 141.94000244140625 C 489.6324462890625 142.2933349609375 488.8524475097656 142.54666137695312 488.1257629394531 142.6999969482422 L 488.1257629394531 142.77999877929688 C 488.5924377441406 142.8333282470703 489.1524353027344 142.94332885742188 489.8057861328125 143.11000061035156 C 490.45245361328125 143.2833251953125 491.1291198730469 143.5433349609375 491.8357849121094 143.88999938964844 C 492.5357666015625 144.2433319091797 493.22576904296875 144.7133331298828 493.90576171875 145.3000030517578 C 494.5791015625 145.8866729736328 495.1891174316406 146.6366729736328 495.73577880859375 147.5500030517578 C 496.2824401855469 148.4566650390625 496.72576904296875 149.55667114257812 497.0657653808594 150.85000610351562 C 497.40576171875 152.1366729736328 497.5757751464844 153.63999938964844 497.5757751464844 155.36000061035156 C 497.5757751464844 158.8000030517578 497.23577880859375 161.60000610351562 496.5557861328125 163.75999450683594 C 495.8824462890625 165.9199981689453 494.8624267578125 167.6133270263672 493.49578857421875 168.83999633789062 C 492.1291198730469 170.05999755859375 490.3957824707031 170.89332580566406 488.2957763671875 171.33999633789062 C 486.20245361328125 171.77999877929688 483.7491149902344 172 480.9357604980469 172 L 457.96575927734375 172 L 457.96575927734375 116.25999450683594 M 477.96575927734375 139.77000427246094 C 479.3724365234375 139.77000427246094 480.569091796875 139.67999267578125 481.5557861328125 139.5 C 482.5491027832031 139.32000732421875 483.3624267578125 138.9499969482422 483.99578857421875 138.38999938964844 C 484.6357727050781 137.8300018310547 485.09912109375 137.04000854492188 485.3857727050781 136.02000427246094 C 485.67242431640625 135.0066680908203 485.8157653808594 133.6666717529297 485.8157653808594 132 C 485.8157653808594 130.6199951171875 485.6457824707031 129.4666748046875 485.3057861328125 128.54000854492188 C 484.9724426269531 127.6199951171875 484.4790954589844 126.88666534423828 483.8257751464844 126.33999633789062 C 483.17242431640625 125.7933349609375 482.3724365234375 125.4000015258789 481.42578125 125.16000366210938 C 480.4724426269531 124.92666625976562 479.3957824707031 124.80999755859375 478.1957702636719 124.80999755859375 L 467.3357849121094 124.80999755859375 L 467.3357849121094 139.77000427246094 L 477.96575927734375 139.77000427246094 M 479.8057861328125 163.4499969482422 C 480.9991149902344 163.4499969482422 482.0857849121094 163.35000610351562 483.0657653808594 163.14999389648438 C 484.03912353515625 162.9566650390625 484.8724365234375 162.57333374023438 485.5657653808594 162 C 486.25244140625 161.42666625976562 486.7857666015625 160.6266632080078 487.165771484375 159.60000610351562 C 487.5457763671875 158.56666564941406 487.73577880859375 157.2066650390625 487.73577880859375 155.52000427246094 C 487.73577880859375 153.82666015625 487.57244873046875 152.4633331298828 487.24578857421875 151.42999267578125 C 486.9190979003906 150.40333557128906 486.40911865234375 149.61666870117188 485.71575927734375 149.07000732421875 C 485.02911376953125 148.52333068847656 484.15911865234375 148.1666717529297 483.10577392578125 148 C 482.0457763671875 147.82666015625 480.7890930175781 147.74000549316406 479.3357849121094 147.74000549316406 L 467.3357849121094 147.74000549316406 L 467.3357849121094 163.4499969482422 L 479.8057861328125 163.4499969482422 ZM 509.2087707519531 116.25999450683594 L 518.5787963867188 116.25999450683594 L 518.5787963867188 172 L 509.2087707519531 172 L 509.2087707519531 116.25999450683594 ZM 544.3203735351562 116.25999450683594 L 556.7403564453125 116.25999450683594 L 574.9903564453125 172 L 564.640380859375 172 L 559.9503784179688 156.8800048828125 L 540.9603881835938 156.8800048828125 L 536.4703979492188 172 L 526.2403564453125 172 L 544.3203735351562 116.25999450683594 M 557.370361328125 148.47999572753906 L 550.4903564453125 124.88999938964844 L 550.3403930664062 124.88999938964844 L 543.4603881835938 148.47999572753906 L 557.370361328125 148.47999572753906 ZM 580.2282104492188 163.67999267578125 C 581.5548706054688 163.86000061035156 582.98486328125 164.01666259765625 584.5181884765625 164.14999389648438 C 585.8515625 164.27667236328125 587.3715209960938 164.3800048828125 589.0781860351562 164.4600067138672 C 590.7781982421875 164.5399932861328 592.58154296875 164.5800018310547 594.4882202148438 164.5800018310547 C 597.0081787109375 164.5800018310547 599.0115356445312 164.4166717529297 600.4982299804688 164.08999633789062 C 601.98486328125 163.76333618164062 603.1182250976562 163.27999877929688 603.898193359375 162.63999938964844 C 604.67822265625 162.0066680908203 605.17822265625 161.22000122070312 605.398193359375 160.27999877929688 C 605.6248779296875 159.33999633789062 605.7382202148438 158.25999450683594 605.7382202148438 157.0399932861328 C 605.7382202148438 156.07333374023438 605.6915283203125 155.19332885742188 605.5982055664062 154.39999389648438 C 605.5048828125 153.60665893554688 605.2882080078125 152.89666748046875 604.9481811523438 152.27000427246094 C 604.6148681640625 151.64999389648438 604.1348876953125 151.11000061035156 603.5081787109375 150.64999389648438 C 602.8815307617188 150.19667053222656 602.0215454101562 149.82666015625 600.92822265625 149.54000854492188 L 589.5582275390625 146.57000732421875 C 587.764892578125 146.10333251953125 586.2415161132812 145.47332763671875 584.9882202148438 144.67999267578125 C 583.7415161132812 143.8800048828125 582.73486328125 142.8699951171875 581.9682006835938 141.64999389648438 C 581.1948852539062 140.42333984375 580.6348876953125 138.94332885742188 580.2882080078125 137.20999145507812 C 579.9348754882812 135.48333740234375 579.7581787109375 133.44667053222656 579.7581787109375 131.10000610351562 C 579.7581787109375 128.33999633789062 580.1748657226562 125.94999694824219 581.0081787109375 123.93000030517578 C 581.841552734375 121.91667175292969 583.0181884765625 120.25666809082031 584.5382080078125 118.94999694824219 C 586.0648803710938 117.6500015258789 587.908203125 116.6866683959961 590.0682373046875 116.05999755859375 C 592.2282104492188 115.43333435058594 594.63818359375 115.1199951171875 597.2982177734375 115.1199951171875 C 599.5115356445312 115.1199951171875 601.5348510742188 115.24666595458984 603.3682250976562 115.5 C 605.2081909179688 115.74666595458984 606.7915649414062 116.01333618164062 608.1182250976562 116.30000305175781 C 609.67822265625 116.63333129882812 611.0982055664062 117.00999450683594 612.3782348632812 117.43000030517578 L 612.3782348632812 124.66000366210938 C 611.2048950195312 124.5 609.9682006835938 124.3566665649414 608.668212890625 124.22999572753906 C 607.5482177734375 124.09666442871094 606.2915649414062 123.98333740234375 604.898193359375 123.88999938964844 C 603.5048828125 123.80332946777344 602.0648803710938 123.75999450683594 600.5781860351562 123.75999450683594 C 598.2581787109375 123.75999450683594 596.3582153320312 123.836669921875 594.8782348632812 123.99000549316406 C 593.3915405273438 124.1500015258789 592.2182006835938 124.47666931152344 591.3582153320312 124.97000122070312 C 590.4982299804688 125.46333312988281 589.898193359375 126.16667175292969 589.5582275390625 127.08000183105469 C 589.224853515625 127.99333190917969 589.0582275390625 129.20333862304688 589.0582275390625 130.70999145507812 C 589.0582275390625 131.5433349609375 589.1015625 132.2866668701172 589.188232421875 132.94000244140625 C 589.2815551757812 133.586669921875 589.4915161132812 134.16000366210938 589.8182373046875 134.66000366210938 C 590.1448974609375 135.15333557128906 590.611572265625 135.5833282470703 591.2182006835938 135.9499969482422 C 591.83154296875 136.30999755859375 592.658203125 136.64666748046875 593.6981811523438 136.95999145507812 L 604.2882080078125 140.00999450683594 C 605.6415405273438 140.39666748046875 606.8448486328125 140.80667114257812 607.898193359375 141.24000549316406 C 608.9581909179688 141.6666717529297 609.8782348632812 142.17333984375 610.658203125 142.75999450683594 C 611.438232421875 143.34666442871094 612.1082153320312 144.02999877929688 612.668212890625 144.80999755859375 C 613.2282104492188 145.58999633789062 613.67822265625 146.52333068847656 614.0181884765625 147.61000061035156 C 614.3515625 148.69000244140625 614.5982055664062 149.9566650390625 614.7581787109375 151.41000366210938 C 614.9115600585938 152.8699951171875 614.9882202148438 154.5500030517578 614.9882202148438 156.4499969482422 C 614.9882202148438 159.42333984375 614.73486328125 161.97000122070312 614.2282104492188 164.08999633789062 C 613.7215576171875 166.2100067138672 612.764892578125 167.94332885742188 611.3582153320312 169.2899932861328 C 609.9515380859375 170.6300048828125 608.0181884765625 171.61666870117188 605.5582275390625 172.25 C 603.0982055664062 172.88999938964844 599.9148559570312 173.2100067138672 596.0081787109375 173.2100067138672 C 592.9882202148438 173.2100067138672 590.4815673828125 173.07333374023438 588.4882202148438 172.8000030517578 C 586.494873046875 172.52667236328125 584.8748779296875 172.22000122070312 583.6282348632812 171.8800048828125 C 582.1948852539062 171.4933319091797 581.0615234375 171.0500030517578 580.2282104492188 170.5500030517578 L 580.2282104492188 163.67999267578125 ZM 625.9907836914062 116.25999450683594 L 659.5108032226562 116.25999450683594 L 659.5108032226562 124.97000122070312 L 635.3607788085938 124.97000122070312 L 635.3607788085938 139.6199951171875 L 655.600830078125 139.6199951171875 L 655.600830078125 148.1699981689453 L 635.3607788085938 148.1699981689453 L 635.3607788085938 163.2899932861328 L 660.1707763671875 163.2899932861328 L 660.1707763671875 172 L 625.9907836914062 172 L 625.9907836914062 116.25999450683594 Z" transform="matrix(1.3812613487243652, 0, 0, 1.3812613487243652, -151.13861083984375, -123.26602935791016)" style="fill: rgb(238, 238, 238); white-space: pre; color: rgb(238, 238, 238); fill-opacity: 1;"/></svg>