<?xml version="1.0" encoding="UTF-8" standalone="no"?>
<svg
   id="master-artboard"
   viewBox="0 0 739.36755 80.23748"
   width="739.36755"
   height="80.23748"
   version="1.1"
   sodipodi:docname="jacobdibiase-logo.svg"
   inkscape:version="1.1.2 (0a00cf5339, 2022-02-04)"
   xmlns:inkscape="http://www.inkscape.org/namespaces/inkscape"
   xmlns:sodipodi="http://sodipodi.sourceforge.net/DTD/sodipodi-0.dtd"
   xmlns="http://www.w3.org/2000/svg"
   xmlns:svg="http://www.w3.org/2000/svg">
  <sodipodi:namedview
     id="namedview67"
     pagecolor="#ffffff"
     bordercolor="#000000"
     borderopacity="0.25"
     inkscape:pageshadow="2"
     inkscape:pageopacity="0.0"
     inkscape:pagecheckerboard="0"
     showgrid="false"
     inkscape:zoom="1.6845466"
     inkscape:cx="370.12926"
     inkscape:cy="143.95565"
     inkscape:window-width="1868"
     inkscape:window-height="1016"
     inkscape:window-x="1972"
     inkscape:window-y="27"
     inkscape:window-maximized="1"
     inkscape:current-layer="master-artboard" />
  <defs
     id="defs61">
    <style
       id="ee-google-fonts">@import url(https://fonts.googleapis.com/css?family=Doppio+One:400);</style>
  </defs>
  <rect
     id="ee-background"
     x="-21.362196"
     y="-35.74477"
     width="783"
     height="359"
     style="fill:#ffffff;fill-opacity:0" />
  <path
     d="m 0,68.745379 c 0.828757,0.0369 1.689739,0.0736 2.582959,0.1105 0.755094,0.0369 1.565425,0.0645 2.431006,0.0829 0.865609,0.0184 1.694352,0.0276 2.486284,0.0276 1.21551,0 2.265269,-0.0553 3.149276,-0.16577 0.883994,-0.1105 1.611476,-0.40055 2.182393,-0.87018 0.58013,-0.46043 1.01292,-1.16946 1.298386,-2.12715 0.285451,-0.94846 0.428191,-2.288285 0.428191,-4.019447 V 1.574624 h 13.011481 l 0.05525,64.145785 c 0,2.73489 -0.317703,5.00937 -0.95307,6.82343 -0.626181,1.82328 -1.560825,3.28279 -2.80396,4.3786 -1.243122,1.0958 -2.780935,1.86931 -4.613399,2.32054 -1.832492,0.4512 -3.955035,0.6768 -6.367615,0.6768 -1.721991,0 -3.356479,-0.0921 -4.903491,-0.27625 -1.546999,-0.17495 -2.914462,-0.39136 -4.102346,-0.6492 C 2.481671,78.708869 1.187885,78.386579 0,78.027449 Z M 63.058861,1.574624 H 80.214114 L 105.42213,78.566139 H 91.126074 L 84.647964,57.681472 H 58.417809 L 52.215946,78.566139 H 38.085643 L 63.058861,1.574624 M 81.084324,46.078877 71.581229,13.494923 h -0.207203 l -9.503064,32.583954 z m 61.331036,33.840902 c -2.48627,0 -4.95872,-0.23481 -7.41736,-0.70444 -2.46786,-0.46963 -4.80681,-1.27998 -7.01681,-2.43101 -2.21003,-1.15107 -4.2681,-2.70729 -6.17424,-4.66868 -1.90615,-1.96139 -3.56367,-4.44306 -4.97255,-7.445 -1.39969,-3.001946 -2.49547,-6.570199 -3.28739,-10.70477 -0.79192,-4.134571 -1.18788,-8.973599 -1.18788,-14.51707 0,-5.322456 0.4512,-9.991105 1.35363,-14.005962 0.90242,-4.005672 2.10873,-7.468038 3.61889,-10.387099 1.51019,-2.909862 3.26899,-5.308643 5.27643,-7.196371 2.01663,-1.887729 4.13917,-3.38869 6.36762,-4.502912 2.23763,-1.114222 4.50752,-1.896928 6.8096,-2.348144 2.30211,-0.451217 4.51211,-0.676818 6.63006,-0.676818 3.6005,0 6.73135,0.179577 9.39259,0.538691 2.66122,0.359115 4.88965,0.755081 6.68529,1.187885 2.09032,0.506467 3.87213,1.081984 5.34548,1.726577 v 9.282076 c -1.47335,-0.110501 -3.05719,-0.221002 -4.75154,-0.331503 -1.43651,-0.0645 -3.08021,-0.14274 -4.9311,-0.234814 -1.86009,-0.09213 -3.79384,-0.138127 -5.80129,-0.138127 -1.8417,0 -3.66956,0.07362 -5.4836,0.221002 -1.81407,0.138126 -3.55904,0.506454 -5.235,1.105009 -1.66672,0.589343 -3.22294,1.459538 -4.66865,2.610584 -1.43652,1.151047 -2.68427,2.725698 -3.74323,4.723914 -1.05896,1.998229 -1.88773,4.489099 -2.48627,7.472623 -0.58934,2.983525 -0.88401,6.59783 -0.88401,10.842915 0,4.46606 0.30388,8.278355 0.91164,11.43683 0.61696,3.167702 1.46413,5.810511 2.54152,7.92844 1.07738,2.127143 2.33433,3.803082 3.77085,5.027777 1.4365,1.224737 3.00194,2.150187 4.69628,2.776347 1.69435,0.62617 3.45775,1.02212 5.29024,1.18789 1.83247,0.15654 3.66495,0.23481 5.49741,0.23481 2.37577,0 4.53515,-0.0322 6.47812,-0.0967 1.94297,-0.0736 3.59589,-0.14732 4.95872,-0.22098 1.62069,-0.11051 3.08023,-0.21642 4.37862,-0.31771 v 9.26826 c -1.58384,0.6538 -3.45316,1.2155 -5.60794,1.68514 -1.87851,0.42358 -4.17141,0.81035 -6.87867,1.16026 -2.7165,0.34072 -5.87496,0.51107 -9.47546,0.51107 z m 65.2293,0.3177 c -3.30583,0 -6.38147,-0.23484 -9.22686,-0.70445 -2.83616,-0.46042 -5.42375,-1.27536 -7.76268,-2.44485 -2.33893,-1.16946 -4.41542,-2.72567 -6.2295,-4.66865 -1.82324,-1.94296 -3.36105,-4.40162 -4.61339,-7.37592 -1.26157,-2.965113 -2.21463,-6.47813 -2.85922,-10.539038 -0.65379,-4.070121 -0.98068,-8.803234 -0.98068,-14.199366 0,-8.084979 0.71824,-14.738058 2.15476,-19.959212 1.44572,-5.211969 3.53601,-9.318928 6.27092,-12.320865 2.72568,-3.01115 6.04992,-5.101468 9.9727,-6.270926 C 198.2935,0.584729 202.71815,0 207.64466,0 c 3.27818,0 6.33539,0.253226 9.17155,0.759694 2.8454,0.506467 5.43758,1.353636 7.77651,2.541507 2.33892,1.187898 4.40623,2.776349 6.20185,4.765365 1.79566,1.998215 3.31502,4.489099 4.55818,7.472623 1.24314,2.992738 2.18698,6.528753 2.83157,10.608087 0.64461,4.079321 0.9669,8.798635 0.9669,14.157929 0,5.35928 -0.32229,10.074008 -0.9669,14.144129 -0.64459,4.060895 -1.58843,7.578511 -2.83157,10.552805 -1.24316,2.96512 -2.76252,5.42837 -4.55818,7.38977 -1.79562,1.96139 -3.86293,3.5176 -6.20185,4.66866 -2.33893,1.15105 -4.93111,1.96599 -7.77651,2.44482 -2.83616,0.48807 -5.89337,0.73209 -9.17155,0.73209 m 0,-11.9203 c 3.52679,0 6.45047,-0.41437 8.77097,-1.24314 2.32056,-0.82875 4.16221,-2.29288 5.52505,-4.392401 1.37207,-2.108731 2.33433,-4.967928 2.88687,-8.577619 0.56169,-3.618919 0.84254,-8.218519 0.84254,-13.798814 0,-5.607907 -0.28085,-10.225934 -0.84254,-13.854051 -0.55254,-3.637331 -1.5148,-6.524167 -2.88687,-8.660509 -1.36284,-2.145554 -3.20449,-3.64193 -5.52505,-4.489099 -2.3205,-0.83797 -5.24418,-1.256948 -8.77097,-1.256948 -3.52684,0 -6.4597,0.418978 -8.79867,1.256948 -2.32969,0.847169 -4.18058,2.343545 -5.55266,4.489099 -1.36284,2.136342 -2.3251,5.023178 -2.88682,8.660509 -0.55251,3.628117 -0.82877,8.246144 -0.82877,13.854051 0,5.580295 0.27626,10.179895 0.82877,13.798814 0.56172,3.609691 1.52398,6.468888 2.88682,8.577619 1.37208,2.099521 3.22297,3.563651 5.55266,4.392401 2.33897,0.82877 5.27183,1.24314 8.79867,1.24314 z M 255.17791,1.574624 h 30.16679 c 3.7754,0 6.99377,0.423605 9.655,1.270774 2.66122,0.83797 4.8436,2.131742 6.54717,3.881358 1.71279,1.740376 2.96509,3.931981 3.75703,6.57479 0.79192,2.642809 1.1879,5.764473 1.1879,9.364952 0,3.057187 -0.31771,5.538871 -0.95307,7.444998 -0.62619,1.906141 -1.40428,3.416329 -2.33434,4.530537 -0.93924,1.114222 -1.98443,1.915354 -3.13545,2.403395 -1.15106,0.488041 -2.22844,0.837956 -3.23219,1.049759 v 0.1105 c 0.64461,0.07362 1.41811,0.225602 2.32056,0.455817 0.89321,0.239414 1.82787,0.598542 2.80396,1.077383 0.96686,0.488042 1.91993,1.137234 2.85917,1.947579 0.93006,0.810344 1.77266,1.84629 2.52774,3.107838 0.75508,1.252348 1.36743,2.771735 1.83706,4.558176 0.46962,1.777214 0.70446,3.853705 0.70446,6.229475 0,4.751538 -0.46963,8.619084 -1.40887,11.602584 -0.93006,2.98353 -2.33894,5.32247 -4.22671,7.01682 -1.88768,1.68514 -4.28188,2.83618 -7.18253,3.45315 -2.89143,0.60776 -6.28012,0.91163 -10.16611,0.91163 H 255.17791 V 1.574624 m 27.62527,32.473467 c 1.94295,0 3.59588,-0.124314 4.95873,-0.372941 1.37202,-0.248613 2.49548,-0.759693 3.37023,-1.5332 0.88402,-0.773506 1.52399,-1.864689 1.91997,-3.273589 0.39599,-1.399673 0.59394,-3.250564 0.59394,-5.55267 0,-1.906141 -0.2348,-3.499191 -0.70441,-4.779151 -0.46045,-1.270774 -1.14188,-2.283694 -2.04428,-3.038788 -0.90241,-0.755094 -2.00745,-1.298386 -3.31503,-1.629889 -1.31681,-0.322289 -2.80396,-0.483441 -4.46149,-0.483441 h -15.00047 v 20.663669 h 14.68281 m 2.54152,32.708268 c 1.6483,0 3.14927,-0.13813 4.50288,-0.41439 1.34441,-0.26703 2.49549,-0.79652 3.45316,-1.58844 0.94847,-0.791918 1.68514,-1.896941 2.21001,-3.315013 0.5249,-1.427312 0.78734,-3.305828 0.78734,-5.63556 0,-2.338945 -0.2256,-4.22206 -0.67685,-5.649372 -0.4512,-1.418072 -1.15562,-2.504669 -2.11329,-3.259749 -0.94848,-0.755108 -2.15016,-1.247749 -3.60512,-1.477964 -1.46412,-0.239427 -3.19994,-0.359114 -5.20732,-0.359114 H 268.12037 V 66.756359 Z M 353.56399,1.574624 h 27.62523 c 2.84542,0 5.57111,0.198004 8.17708,0.593956 2.60597,0.395966 5.02318,1.09581 7.25162,2.099517 2.22845,1.003721 4.2635,2.408008 6.10519,4.212833 1.83246,1.795654 3.3933,4.097761 4.68246,6.906307 1.29839,2.799375 2.2975,6.178865 2.99735,10.138485 0.69982,3.959607 1.04973,8.600631 1.04973,13.923087 0,5.506647 -0.32226,10.299623 -0.96685,14.378944 -0.64461,4.07932 -1.57925,7.569325 -2.80396,10.469956 -1.22475,2.89145 -2.7165,5.26261 -4.47532,7.11351 -1.76801,1.86009 -3.77545,3.31962 -6.02228,4.3786 -2.24687,1.05896 -4.7101,1.78643 -7.38975,2.1824 -2.67966,0.39595 -5.54807,0.59392 -8.60527,0.59392 H 353.56399 V 1.574624 m 24.11685,64.960715 c 1.83247,0 3.61431,-0.046 5.34547,-0.13812 1.72199,-0.0921 3.32885,-0.40517 4.82059,-0.93927 1.49179,-0.54328 2.85922,-1.362839 4.10234,-2.458635 1.24314,-1.09581 2.30674,-2.652022 3.19072,-4.668649 0.87479,-2.016656 1.55624,-4.56279 2.04428,-7.638375 0.48805,-3.075614 0.73207,-6.860283 0.73207,-11.353968 0,-4.171423 -0.23483,-7.702853 -0.70446,-10.594302 -0.46962,-2.900635 -1.13259,-5.30403 -1.98902,-7.210184 -0.86556,-1.906127 -1.90151,-3.388676 -3.10783,-4.447634 -1.20629,-1.058985 -2.56454,-1.850904 -4.0747,-2.375783 -1.5102,-0.524879 -3.13549,-0.83797 -4.87585,-0.939258 -1.74959,-0.110501 -3.57747,-0.165751 -5.48361,-0.165751 h -11.1744 V 66.535329 Z M 427.48352,1.574624 h 12.94244 v 76.991515 h -12.94244 z m 32.58605,0 h 30.16679 c 3.7754,0 6.99377,0.423605 9.655,1.270774 2.66122,0.83797 4.8436,2.131742 6.54717,3.881358 1.71275,1.740376 2.9651,3.931981 3.75703,6.57479 0.79192,2.642809 1.1879,5.764473 1.1879,9.364952 0,3.057187 -0.31771,5.538871 -0.95307,7.444998 -0.62619,1.906141 -1.40428,3.416329 -2.33434,4.530537 -0.93924,1.114222 -1.98443,1.915354 -3.13549,2.403395 -1.15102,0.488041 -2.2284,0.837956 -3.23215,1.049759 v 0.1105 c 0.64461,0.07362 1.41812,0.225602 2.32056,0.455817 0.89321,0.239414 1.82787,0.598542 2.80395,1.077383 0.96687,0.488042 1.91994,1.137234 2.85918,1.947579 0.93006,0.810344 1.77266,1.84629 2.52774,3.107838 0.75508,1.252348 1.36743,2.771735 1.83706,4.558176 0.46962,1.777214 0.70446,3.853705 0.70446,6.229475 0,4.751538 -0.46963,8.619084 -1.40887,11.602584 -0.93006,2.98353 -2.33898,5.32247 -4.22666,7.01682 -1.88773,1.68514 -4.28193,2.83618 -7.18258,3.45315 -2.89143,0.60776 -6.28014,0.91163 -10.16611,0.91163 H 460.06957 V 1.574624 m 27.62523,32.473467 c 1.94299,0 3.59588,-0.124314 4.95877,-0.372941 1.37202,-0.248613 2.49544,-0.759693 3.37027,-1.5332 0.88398,-0.773506 1.52399,-1.864689 1.91993,-3.273589 0.39594,-1.399673 0.59394,-3.250564 0.59394,-5.55267 0,-1.906141 -0.2348,-3.499191 -0.70441,-4.779151 -0.46045,-1.270774 -1.14188,-2.283694 -2.04428,-3.038788 -0.90247,-0.755094 -2.00745,-1.298386 -3.31503,-1.629889 -1.31681,-0.322289 -2.80396,-0.483441 -4.46149,-0.483441 h -15.00048 v 20.663669 h 14.68278 m 2.54156,32.708268 c 1.64829,0 3.14926,-0.13813 4.50288,-0.41439 1.34445,-0.26703 2.49549,-0.79652 3.45316,-1.58844 0.94847,-0.791918 1.68514,-1.896941 2.21001,-3.315013 0.5249,-1.427312 0.78734,-3.305828 0.78734,-5.63556 0,-2.338945 -0.2256,-4.22206 -0.67681,-5.649372 -0.45124,-1.418072 -1.15566,-2.504669 -2.11337,-3.259749 -0.94844,-0.755108 -2.15012,-1.247749 -3.60508,-1.477964 -1.46412,-0.239427 -3.19994,-0.359114 -5.20734,-0.359114 h -16.57513 v 21.699602 z m 40.6132,-65.181735 h 12.94246 v 76.991515 h -12.94246 z m 48.49829,0 h 17.15525 l 25.20802,76.991515 H 607.4151 l -6.47812,-20.884667 h -26.23014 l -6.20185,20.884667 H 554.37463 L 579.34785,1.574624 m 18.02545,44.504253 -9.50308,-32.583954 h -0.20715 l -9.50308,32.583954 z m 31.57266,20.995162 c 1.83247,0.24864 3.80766,0.46503 5.92558,0.64919 1.84174,0.17498 3.9412,0.3177 6.29856,0.42822 2.34815,0.1105 4.83904,0.16573 7.47266,0.16573 3.48072,0 6.24789,-0.2256 8.3014,-0.67681 2.05342,-0.45121 3.6189,-1.11882 4.69623,-2.00283 1.07742,-0.8748 1.76805,-1.961393 2.07189,-3.259779 0.31312,-1.298385 0.46967,-2.790161 0.46967,-4.4753 0,-1.33521 -0.0645,-2.55072 -0.19339,-3.64653 -0.12887,-1.095796 -0.42819,-2.076478 -0.89786,-2.942073 -0.46039,-0.856396 -1.12337,-1.602263 -1.98902,-2.237657 -0.86556,-0.626153 -2.05342,-1.137234 -3.5636,-1.533172 l -15.70492,-4.102346 c -2.47707,-0.644607 -4.58125,-1.514802 -6.31238,-2.610612 -1.72202,-1.104995 -3.11248,-2.500069 -4.17144,-4.185222 -1.06814,-1.694324 -1.84165,-3.738604 -2.3205,-6.1328 -0.48804,-2.384955 -0.73211,-5.198128 -0.73211,-8.439479 0,-3.812295 0.57556,-7.113509 1.72657,-9.903657 1.15111,-2.780935 2.77635,-5.073829 4.8759,-6.878681 2.10873,-1.79564 4.65483,-3.126251 7.63841,-3.991846 C 645.5211,0.43279 648.8499,0 652.52411,0 c 3.05717,0 5.85189,0.174964 8.38427,0.524879 2.54146,0.340716 4.72851,0.709057 6.56099,1.105009 2.15475,0.460416 4.11613,0.980682 5.88417,1.560825 v 9.98652 c -1.62068,-0.221002 -3.32888,-0.418978 -5.12451,-0.593943 -1.547,-0.184177 -3.28277,-0.340702 -5.20738,-0.469629 -1.92452,-0.119755 -3.91354,-0.179577 -5.96705,-0.179577 -3.20454,0 -5.82888,0.105942 -7.87313,0.317717 -2.05351,0.220988 -3.6742,0.672205 -4.86206,1.353623 -1.18787,0.681417 -2.01668,1.652914 -2.48625,2.914461 -0.46049,1.261547 -0.69063,2.932887 -0.69063,5.013965 0,1.15106 0.0598,2.177807 0.17956,3.080226 0.12887,0.89322 0.41892,1.685139 0.87021,2.37577 0.4512,0.681431 1.09579,1.27536 1.93371,1.781827 0.84718,0.497254 1.98902,0.962283 3.4255,1.39506 l 14.6276,4.212847 c 1.8693,0.534106 3.53139,1.100423 4.98632,1.698979 1.46414,0.589329 2.73496,1.289172 3.8123,2.099489 1.07742,0.810345 2.00286,1.754216 2.77635,2.8316 0.7735,1.077384 1.39509,2.366556 1.86467,3.867531 0.46047,1.491763 0.80116,3.241365 1.02212,5.248793 0.21186,2.016642 0.31775,4.337161 0.31775,6.961557 0,4.10696 -0.34996,7.62456 -1.04977,10.55284 -0.69982,2.92828 -2.02123,5.32245 -3.96421,7.18254 -1.94299,1.85091 -4.61345,3.21375 -8.0113,4.08855 -3.39793,0.88401 -7.79497,1.32602 -13.19112,1.32602 -4.17135,0 -7.63369,-0.18879 -10.38703,-0.56633 -2.75333,-0.37754 -4.99096,-0.80113 -6.71291,-1.27076 -1.97982,-0.53409 -3.5453,-1.14644 -4.69632,-1.83708 z M 692.15603,1.574624 h 46.2999 v 12.0308 h -33.35748 v 20.235478 h 27.95679 v 11.809784 h -27.95679 v 20.884653 h 34.26909 v 12.0308 h -47.21151 z"
     style="color:#eeeeee;white-space:pre;fill:#eeeeee;fill-opacity:1;stroke-width:1.38126"
     id="path64" />
</svg>
